<svg id="Layer_1" data-name="Layer 1" xmlns="http://www.w3.org/2000/svg" viewBox="0 0 323.5 221.76"><defs><style>.cls-1,.cls-3{fill:#252833;}.cls-2,.cls-4{fill:#f26522;}.cls-3,.cls-4{fill-rule:evenodd;}</style></defs><g id="Layer_1-2" data-name="Layer 1"><path class="cls-1" d="M178.11,248.93a10.7,10.7,0,0,0,.66,3.82,8.46,8.46,0,0,0,1.82,2.91,7.72,7.72,0,0,0,2.68,1.85,8.34,8.34,0,0,0,3.28.64,8.26,8.26,0,0,0,3.27-.64,8,8,0,0,0,2.64-1.83,8.91,8.91,0,0,0,1.78-2.9,10.85,10.85,0,0,0,.64-3.86,10.23,10.23,0,0,0-.66-3.77,8.84,8.84,0,0,0-1.79-2.88,8,8,0,0,0-2.67-1.83,8.34,8.34,0,0,0-3.28-.64,8.5,8.5,0,0,0-3.32.64,7.71,7.71,0,0,0-2.64,1.82,8.54,8.54,0,0,0-1.77,2.87,10.71,10.71,0,0,0-.64,3.8m-13.47,0a22.38,22.38,0,0,1,1.39-7.9,18.87,18.87,0,0,1,4-6.49,19.34,19.34,0,0,1,6.47-4.41,21.82,21.82,0,0,1,8.66-1.63,17.43,17.43,0,0,1,6,1,20.2,20.2,0,0,1,4.65,2.33l.44-2h11.42v38.26H196.33l-.44-2.07a18.89,18.89,0,0,1-4.69,2.37,17.61,17.61,0,0,1-6,1,21.83,21.83,0,0,1-8.62-1.62,18.76,18.76,0,0,1-10.49-10.88,21.89,21.89,0,0,1-1.42-7.91Zm-2.54,19.13H148.59v-20.2a14.25,14.25,0,0,0-.48-4.07,5.78,5.78,0,0,0-1.34-2.46,4.66,4.66,0,0,0-2.06-1.22,10.41,10.41,0,0,0-2.66-.33,6.46,6.46,0,0,0-2.92.64,6.56,6.56,0,0,0-2.23,1.78,8,8,0,0,0-1.39,2.68,11.45,11.45,0,0,0-.48,3.33v19.84H121.59V216.33H135l-.08,15.23a26.42,26.42,0,0,1,4.61-2.14,15.51,15.51,0,0,1,5.26-.9,21.06,21.06,0,0,1,7.92,1.34A13.44,13.44,0,0,1,158,233.7a15.89,15.89,0,0,1,3.07,6,29.93,29.93,0,0,1,1,7.88v20.48ZM105,249a10.28,10.28,0,0,0-.66-3.82,8.88,8.88,0,0,0-1.79-2.91,7.7,7.7,0,0,0-2.68-1.86,8.7,8.7,0,0,0-6.55,0,7.81,7.81,0,0,0-2.66,1.83,8.66,8.66,0,0,0-1.79,2.92A10.82,10.82,0,0,0,88.2,249a10.31,10.31,0,0,0,.66,3.77,8.84,8.84,0,0,0,1.79,2.88,7.89,7.89,0,0,0,2.68,1.83,8.49,8.49,0,0,0,3.31.64,8.27,8.27,0,0,0,3.28-.64,7.52,7.52,0,0,0,2.64-1.82,8.39,8.39,0,0,0,1.77-2.87,10.71,10.71,0,0,0,.64-3.8Zm13.51,0a23,23,0,0,1-1.35,7.91,18.56,18.56,0,0,1-4,6.49,18.86,18.86,0,0,1-6.38,4.41,21.52,21.52,0,0,1-8.6,1.63,19.38,19.38,0,0,1-5.21-.66A17.89,17.89,0,0,1,88.82,267v14.18H75.38V229.82H86.17l.66,2.42A20.58,20.58,0,0,1,89,230.82a17.36,17.36,0,0,1,2.61-1.19,19.88,19.88,0,0,1,2.95-.82,18.6,18.6,0,0,1,3.33-.29,21.85,21.85,0,0,1,8.59,1.62,19.14,19.14,0,0,1,6.48,4.39,18.8,18.8,0,0,1,4.07,6.49,21.88,21.88,0,0,1,1.42,7.9ZM57.17,216.34H70.61v51.74H57.17Zm-35,32.59a10.7,10.7,0,0,0,.66,3.82,8.46,8.46,0,0,0,1.82,2.91,7.72,7.72,0,0,0,2.68,1.85,8.34,8.34,0,0,0,3.28.64,8.26,8.26,0,0,0,3.27-.64,8,8,0,0,0,2.64-1.83,8.91,8.91,0,0,0,1.78-2.9,10.85,10.85,0,0,0,.64-3.86,10.23,10.23,0,0,0-.66-3.77,8.84,8.84,0,0,0-1.79-2.88,8,8,0,0,0-2.67-1.83,8.34,8.34,0,0,0-3.28-.64,8.5,8.5,0,0,0-3.32.64,7.71,7.71,0,0,0-2.64,1.82,8.54,8.54,0,0,0-1.77,2.87,10.71,10.71,0,0,0-.64,3.8ZM8.7,249a22.38,22.38,0,0,1,1.39-7.9,18.87,18.87,0,0,1,4-6.49,19.34,19.34,0,0,1,6.47-4.41,21.82,21.82,0,0,1,8.66-1.63,17.43,17.43,0,0,1,6,1A20.2,20.2,0,0,1,40,231.83l.44-2H51.81v38.26H40.39L40,266a18.89,18.89,0,0,1-4.69,2.37,17.61,17.61,0,0,1-6,1,21.83,21.83,0,0,1-8.62-1.62,18.76,18.76,0,0,1-10.49-10.88,21.89,21.89,0,0,1-1.42-7.91Z" transform="translate(-8.7 -59.38)"/><path class="cls-2" d="M332.2,268.05H318.69V247.92a14.13,14.13,0,0,0-.46-3.95,6.6,6.6,0,0,0-1.24-2.49,4.21,4.21,0,0,0-1.86-1.32,6.44,6.44,0,0,0-2.24-.39,7.16,7.16,0,0,0-7.25,5.69,13.06,13.06,0,0,0-.5,3.74v18.85H291.7V229.77h10.75l.7,2.28c.78-.46,1.64-.92,2.57-1.35a21.57,21.57,0,0,1,2.9-1.14,28.32,28.32,0,0,1,3.08-.78,17.78,17.78,0,0,1,3.16-.29,20.85,20.85,0,0,1,7.92,1.35,13.78,13.78,0,0,1,5.38,3.86,15.67,15.67,0,0,1,3.07,6,29.93,29.93,0,0,1,1,7.88V268Zm-59.55-38.3H286.2v38.3H272.65Zm-.88,0-13.21,38.28h-12l-6.14-18-6,18h-12l-13.18-38.28h14.46l6.1,20.66h.11l5.77-20.58h9.61L251,250.43h.15l6.09-20.66Z" transform="translate(-8.7 -59.38)"/><polygon class="cls-3" points="277.5 168.97 277.5 156.97 263.95 156.97 277.5 168.97"/><path class="cls-4" d="M200.76,105c5.21-32.2-8.24-45.59-36.65-45.59q-30.93,0-54,23.69a103.52,103.52,0,0,0-27.63,49.22Q77,154.45,87.44,170.75a36.59,36.59,0,0,0,15.25,13.72h0c4.79,2.57,12.91,4.22,20.2,4.12q21.66,0,40.66-12.92,15-10.46,31.67-30.77l-.26.31.26-.31c.44,6.57.85,12,1.26,16.46,3.53,39.21,32.22,31.39,63.1,5-25,7-38.72,4.24-51.32-11.65a27,27,0,0,1-4.35-8.15,37,37,0,0,1-1.75-9.4h0s5.85-6.74,15.18-18.27c11.32-14,26.49-34.66,42.93-56.47H229.69ZM130,178a28,28,0,0,1-10.18,2.28q-26.13,0-16.24-40,5.18-20.92,21-40.3,18.92-23.68,40.23-23.69c25.12,0,28.33,22,27.86,40.06l-.07.25h0c-9.17,12.93-17.93,24.93-29.7,36.9C152.64,163.54,140.66,173.73,130,178Z" transform="translate(-8.7 -59.38)"/></g></svg>