<svg xmlns="http://www.w3.org/2000/svg" xmlns:xlink="http://www.w3.org/1999/xlink" xmlns:inkscape="http://www.inkscape.org/namespaces/inkscape" version="1.1" width="370.467" height="257.528" viewBox="0 0 370.467 257.528">
<defs>
<clipPath id="clip_0">
<path transform="matrix(1,0,0,-1,0,257.528)" d="M0 257.528H370.467V0H0Z"/>
</clipPath>
</defs>
<g inkscape:groupmode="layer" inkscape:label="Layer 1">
<path transform="matrix(1,0,0,-1,54.019,182.59102)" d="M0 0H8.395V-3.504H6.277V-47.595H14.453V-36.499H18.03V-51.099H0V-47.595H2.116V-3.504H0Z" fill="#231f20"/>
<path transform="matrix(1,0,0,-1,82.4165,182.59102)" d="M0 0H8.395V-3.504H6.277V-47.595H8.395V-51.099H0V-47.595H2.117V-3.504H0Z" fill="#231f20"/>
<g clip-path="url(#clip_0)">
<path transform="matrix(1,0,0,-1,106.3599,225.66031)" d="M0 0C0-3.065 2.116-4.817 4.672-4.817 7.299-4.817 9.416-3.065 9.416 0V34.967C9.416 38.032 7.299 39.857 4.672 39.857 2.116 39.857 0 38.032 0 34.967ZM13.577 34.967V0C13.577-5.328 9.563-8.321 4.672-8.321-.22-8.321-4.161-5.328-4.161 0V34.967C-4.161 40.295-.22 43.361 4.672 43.361 9.563 43.361 13.577 40.295 13.577 34.967" fill="#231f20"/>
<path transform="matrix(1,0,0,-1,145.1948,182.59102)" d="M0 0H8.249V-3.504H6.132V-51.099H2.336L-7.592-12.629H-7.737V-47.595H-5.62V-51.099H-13.869V-47.595H-11.753V-3.504H-13.869V0H-7.956L1.898-38.47H2.117V-3.504H0Z" fill="#231f20"/>
<path transform="matrix(1,0,0,-1,215.0903,230.18572)" d="M0 0H2.117V44.091H0V47.595H6.277V24.454H15.694V44.091H13.577V47.595H21.973V44.091H19.855V0H21.973V-3.504H15.694V20.95H6.277V0H8.395V-3.504H0Z" fill="#231f20"/>
<path transform="matrix(1,0,0,-1,255.5317,186.09491)" d="M0 0H-8.541V-19.637H2.117V-23.141H-8.541V-44.091H0V-32.995H3.577V-47.595H-14.818V-44.091H-12.701V0H-14.818V3.504H3.577V-11.096H0Z" fill="#231f20"/>
<path transform="matrix(1,0,0,-1,278.0161,216.46212)" d="M0 0-3.797 28.834H-3.942L-7.812 0ZM-15.987-13.724H-13.87L-7.154 30.367H-8.906V33.871H-1.168L5.912-13.724H8.176V-17.228H2.189L.219-3.504H-8.104L-9.709-13.724H-7.592V-17.228H-15.987Z" fill="#231f20"/>
<path transform="matrix(1,0,0,-1,298.4556,207.92111)" d="M0 0C2.628 0 4.744 1.752 4.744 4.817V16.936C4.744 20.001 2.628 21.826 0 21.826H-4.234V0ZM-10.512 25.33H0C4.891 25.33 8.905 22.264 8.905 16.936V4.817C8.905 .803 6.643-1.752 3.504-2.628L9.489-22.265H11.606V-25.769H5.985L-.073-3.504H-4.234V-22.265H-2.117V-25.769H-10.512V-22.265H-8.395V21.826H-10.512Z" fill="#231f20"/>
<path transform="matrix(1,0,0,-1,318.7485,230.18572)" d="M0 0H2.117V44.091H-2.7V32.995H-6.351V47.595H14.746V32.995H11.169V44.091H6.278V0H8.396V-3.504H0Z" fill="#231f20"/>
<path transform="matrix(1,0,0,-1,162.9258,210.29312)" d="M0 0C.001 .002-.086-.025-.086-.025-.086-.025-.001-.002 0 0" fill="#231f20"/>
<path transform="matrix(1,0,0,-1,163.2817,212.11252)" d="M0 0C0 0-.038 .08-.039 .08-.04 .08 0 0 0 0" fill="#231f20"/>
<path transform="matrix(1,0,0,-1,365.1548,111.17502)" d="M0 0H.027L.771 2.165H2.544V-2.219H1.354V.88H1.326L.285-2.219H-.271L-1.326 .88H-1.353V-2.219H-2.543V2.165H-.757ZM-3.043 1.178H-4.315V-2.219H-5.506V1.178H-6.75V2.165H-3.043Z" fill="#231f20"/>
<path transform="matrix(1,0,0,-1,99.8154,87.892719)" d="M0 0C.022-.105 .042-.196 .062-.293 .064-.187 .065-.08 .067 .026Z" fill="#231f20"/>
<path transform="matrix(1,0,0,-1,164.0269,117.641819)" d="M0 0C-.001 .003-.001 .006-.002 .009-.014-.003-.025-.016-.037-.028Z" fill="#231f20"/>
<path transform="matrix(1,0,0,-1,227.6738,61.41812)" d="M0 0C-.023-.001-.052 .002-.077 .002-.077-.008-.077-.017-.078-.026Z" fill="#231f20"/>
<path transform="matrix(1,0,0,-1,207.77,137.23941)" d="M0 0C-.681 .809-1.273 2.207-.935 3.943-2.883 2.885-4.045 1.46-4.295-.355L-4.29-.352C-3.934 .201-3.138 1.198-2.375 1.571-1.146 1.198-.808 .216 .151-1.546 .579-.275 .868 .581 1.156 1.438 .959 1.512 .231 .679 0 0" fill="#231f20"/>
<path transform="matrix(1,0,0,-1,227.9346,61.327318)" d="M0 0C.024-.084 .05-.17 .075-.254 .076-.16 .078-.066 .079 .027 .077 .026 0 0 0 0" fill="#231f20"/>
<path transform="matrix(1,0,0,-1,214.084,111.188617)" d="M0 0C.004-.005 .006-.008 .01-.013 .032-.001 .049 .013 .071 .024 .071 .024 0 0 0 0" fill="#231f20"/>
<path transform="matrix(1,0,0,-1,214.084,111.188617)" d="M0 0 .071 .024C.071 .024 .071 .024 .071 .024 .047 .184 .021 .343-.003 .502-.002 .335-.001 .167 0 0" fill="#231f20"/>
<path transform="matrix(1,0,0,-1,164.3286,117.55292)" d="M0 0C-.005-.016-.01-.032-.015-.048-.002-.025 .011-.003 .024 .02 .037 .028 0 0 0 0" fill="#231f20"/>
<path transform="matrix(1,0,0,-1,312.5962,109.93672)" d="M0 0C.014 .006 .028 .012 .042 .018 .042 .018 .031 .04 .021 .062L.041 .02C.065 .09 .084 .161 .107 .231 .069 .195 .029 .159-.007 .121-.004 .081-.002 .04 0 0" fill="#231f20"/>
<path transform="matrix(1,0,0,-1,243.9302,86.67691)" d="M0 0C-.242 2.173-.507 4.55-.771 6.927-1.051 6.905-1.332 6.884-1.611 6.863-1.605 5.559-1.459 4.234-1.648 2.959-1.758 2.213-.699 .806-2.562 .7-2.609 .697-2.672 .137-2.646-.156-2.448-2.47-2.229-4.781-2.019-7.068L-4.539-6.936C-4.058-5.771-3.343-4.72-3.221-3.604-2.982-1.427-3.047 .787-3.081 2.983-3.083 3.181-3.77 3.367-4.139 3.559-4.318 3.12-4.616 2.691-4.657 2.24-4.992-1.509-5.28-5.262-5.569-8.857-5.916-7.327-6.305-5.609-6.693-3.893-6.571-3.886-6.448-3.879-6.327-3.871-6.008-2.376-5.525-.811-7.604-.431-8.268-1.182-8.86-1.853-9.452-2.522-9.293-3.125-9.135-3.728-9.055-4.03-8.076-3.974-7.366-3.932-6.694-3.893-6.76-5.159-6.901-6.426-6.875-7.69-6.835-9.576-6.677-11.459-6.546-13.751-8.708-12.403-5.906-9.684-8.289-9.06-8.675-10.43-8.996-11.569-9.317-12.709-9.712-12.644-10.107-12.579-10.501-12.514-10.309-10.896-10.017-9.282-9.954-7.659-9.903-6.358-10.167-5.048-10.207-3.739-10.218-3.398-9.914-3.048-9.755-2.702-9.851-1.092-9.528 .424-11.193 1.8-12.79 3.119-12.125 5.774-10.381 6.689-10.754 7.458-10.922 8.55-11.538 8.945-13.967 10.505-15.539 12.457-15.65 15.479-15.677 14.342-15.703 13.205-15.739 11.664-17.108 12.413-18.757 12.778-19.208 13.72-19.621 14.578-18.737 16.06-18.333 17.619L-20.189 15.956C-20.521 16.169-18.287 24.335-16.883 28.554-17.75 26.457-18.617 24.36-19.655 21.85-20.137 22.676-20.313 22.979-20.612 23.49-20.992 20.471-21.344 17.669-21.697 14.867-21.962 14.915-22.48 15.101-22.224 17.616-25.064 8.577-26.701 17.002-27.034 18.708-27.241 18.69-26.547 7.095-34.451 4.635-34.908 5.371-35.4 6.164-35.893 6.956-36.02 6.924-34.424 .742-36.087-1.456-36.529-2.04-36.465-3.008-36.664-3.945-36.926-3.747-37.236-3.512-37.372-3.409-37.988-4.493-38.637-5.565-39.22-6.672-40.166-8.467-41.493-7.275-42.696-7.185-42.977-7.164-43.143-8.621-42.795-9.525-42.477-8.758-42.34-8.426-42.193-8.069-40.793-9.247-39.588-9.375-38.877-7.107-38.645-8.378-38.458-9.396-38.269-10.429-37.762-8.851-37.287-7.372-36.813-5.894-36.636-5.878-36.458-5.862-36.281-5.847-36.019-6.645-35.757-7.443-35.518-8.17-35.145-6.639-33.963-3.394-33.574-3.342-33.086-4.22-32.544-5.076-32.149-5.995-31.656-7.142-31.305-8.35-30.893-9.531-30.852-7.616-30.81-5.701-30.769-3.787-26.547-6.631-27.461-12.901-27.291-13.72-27.04-10.719-26.788-7.719-26.503-4.319-22.989-8.271-22.574-12.915-20.509-17.229-20.213-16.322-19.917-15.417-19.635-14.552-17.665-16.291-17.771-22.542-17.193-24.404-16.673-22.969-16.181-21.61-15.572-19.93-14.784-21.732-13.754-22.474-13.712-24.524-13.714-24.533-14.109-25.612-14.265-26.088-14.163-26.128-13.382-25.061-13.072-24.443-11.069-26.521-11.257-27.077-13.329-28.899-14.689-30.095-15.629-31.77-16.815-33.304-17.234-32.855-17.656-32.403-18.073-31.959-18.337-32.094-18.558-32.146-18.566-32.221-18.805-34.377-19.426-36.512-17.559-38.448-16.907-39.124-17.009-40.526-16.767-41.598-16.771-40.362-16.847-39.122-16.759-37.894-16.69-36.932-16.418-35.984-15.794-35.151-15.531-38.244-15.268-41.337-15-44.478L-17.257-44.911C-17.044-43.75-16.859-42.738-16.674-41.727-18.114-43.419-18.975-42.32-19.698-41.077-20.333-41.732-20.915-42.332-21.716-43.159-17.73-45.396-19.734-48.817-20.242-52.005-20.391-51.322-20.54-50.64-20.788-49.508-21.512-51.455-20.95-53.919-24.043-54.184-23.582-53.066-23.23-52.217-22.818-51.219-23.391-51.081-23.839-50.974-23.963-50.944-23.005-48.911-22.076-46.941-21.063-44.793-21.675-44.632-22.086-44.524-22.617-44.385-22.651-45.109-22.594-45.744-22.735-46.331-22.847-46.8-23.2-47.211-23.446-47.648-23.845-47.344-24.249-47.047-24.641-46.733-25.1-46.366-25.549-45.985-26.003-45.611-25.923-47.956-25.303-50.439-27.231-52.364-27.834-52.967-29.767-53.577-31.339-53.879-29.227-51.782-29.926-48.076-29.242-47.175-28.893-46.715-27.962-45.353-26.291-44.947-26.498-44.14-25.652-44.03-25.621-42.087-26.775-44.191-33.816-49.152-33.743-50.796-33.698-51.796-33.781-52.802-33.809-53.806-34.739-53.515-35.679-53.225-36.701-52.909-36.69-53.53-36.678-54.27-36.676-54.364-37.82-53.622-39.143-52.743-40.502-51.925-40.6-51.865-40.943-52.346-41.211-52.405-41.732-52.522-42.28-52.522-42.817-52.57-42.142-52.057-41.465-51.545-40.789-51.032L-40.794-51.035C-41.476-50.13-41.899-48.192-43.588-50.582-42.915-50.389-42.453-50.255-41.86-50.084-42.949-52.983-45.438-51.628-45.876-51.632-45.768-51.593-43.025-50.42-44.493-47.129-44.178-49.61-47.319-51.74-47.431-51.781-48.465-51.569-49.392-51.457-49.212-49.955-49.048-48.579-49.309-47.151-49.923-45.731L-49.927-51.522C-50.288-51.62-50.25-51.61-50.61-51.708L-52.359-48.732C-52.45-49.278-52.589-50.108-52.727-50.938-52.935-50.928-53.142-50.917-53.349-50.906-53.295-49.142-53.24-47.377-53.207-46.296-52.348-45.904-51.878-45.696-51.416-45.471-51.379-45.452-51.377-45.317-51.392-45.243-52.008-42.122-49.882-39.893-48.689-37.018-48.042-40.093-47.449-42.917-46.855-45.741-46.715-45.719-46.575-45.697-46.434-45.676-46.467-45.217-46.467-44.752-46.538-44.299-47.121-40.523-45.777-37.18-44.157-33.922-43.939-33.484-43.243-33.285-42.768-32.977-42.352-33.76-41.937-34.543-41.594-35.188-40.989-34.161-40.31-32.761-39.387-31.544-38.935-30.947-37.768-30.858-37.386-30.25-36.509-28.853-35.913-27.278-35.208-25.774-34.763-24.823-34.089-23.901-33.949-22.905-33.795-21.819-34.138-20.662-34.279-19.4-33.896-18.873-33.228-17.955-32.56-17.037-32.744-16.871-32.929-16.704-33.114-16.538-33.435-16.837-33.755-17.135-34.084-17.44-34.307-17.146-34.526-16.857-34.922-16.336-35.628-18.045-36.26-19.573-36.989-21.336-37.615-20.764-38.036-20.378-38.583-19.877-38.914-20.479-39.197-20.997-39.685-21.889-39.899-19.37-40.086-17.187-40.272-15.005-40.439-15.016-40.606-15.026-40.773-15.036-40.713-16.735-40.51-18.446-40.656-20.126-40.729-20.97-41.438-21.758-41.861-22.571-42.392-21.849-42.968-21.152-43.433-20.389-43.609-20.099-43.529-19.653-43.985-19.229-44.245-20.38-44.504-21.53-44.763-22.684L-47.55-21.95C-47.79-20.222-48.05-18.343-48.311-16.465-48.444-16.473-48.577-16.48-48.71-16.489-48.722-17.813-48.734-19.138-48.746-20.461-48.97-20.478-49.194-20.494-49.418-20.511-49.549-19.613-49.68-18.716-49.811-17.818L-50.324-17.786C-50.392-18.496-50.631-19.24-50.496-19.91-50.122-21.769-51.696-21.984-52.7-22.423-53.381-22.721-54.736-22.641-55.124-22.175-55.728-21.451-56.302-19.941-55.938-19.321-55.016-17.747-55.871-16.6-56.299-15.111-57.13-15.5-58.179-16.366-58.354-13.731L-59.5-15.689C-58.615-16.749-58.608-16.757-57.722-17.817L-56.893-17.514C-57.003-19.291-57.113-21.069-57.223-22.848-57.83-22.962-57.749-22.946-58.356-23.061L-59.87-19.78C-60.13-20.41-60.373-20.997-60.553-21.432L-63.802-23.515C-66.227-22.904-66.265-20.737-66.495-18.934-67.292-20.019-68.118-21.144-69.026-22.381L-70.751-19.734C-72.168-20.563-73.492-21.527-74.973-22.015-75.22-22.096-76.15-20.101-76.673-19.219-76.745-19.829-76.863-20.832-76.982-21.834-77.162-21.844-77.341-21.854-77.521-21.864-77.621-20.929-78.003-17.83-78.143-16.521-78.418-18.555-78.634-19.691-78.944-20.441-80.547-18.092-82.734-14.795-83.12-13.811-83.301-13.35-83.411-13.08-83.348-11.004-83.29-9.114-83.137-3.932-83.63-.707-83.713-2.003-83.708-3.313-83.904-4.591-84.155-6.226-84.569-7.835-85.183-9.413-86.414-7.313-86.957-6.034-86.791-2.823-86.736-1.753-87.488-.032-87.966 1.432-87.964 1.432-87.963 1.433-87.961 1.433-87.275 1.874-86.586 2.309-85.623 2.917-85.132 1.778-84.857 .571-84.497-1.018-84.34-.133-84.37 1.439-84.066 2.48-83.516 1.499-83.137 .822-82.759 .146-82.491-.903-82.188-1.944-81.968-3.004-81.809-3.767-81.354-5.198-81.256-5.974-80.173-4.989-79.689-2.803-79.689-2.803-79.308-5.127-77.88-8.407-77.168-11.47-76.714-9.443-76.292-7.563-75.833-5.515-75.395-6.129-74.786-7.001-74.531-8.399-74.531-8.399-73.946-6.418-73.785-5.619-73.324-3.334-73.572-1.151-73.993 1.176L-76.126-3.984C-78.058 1.704-78.253 4.593-78.741 8.327-79.962 8.471-81.5 8.198-82.239 8.843-83.414 9.869-84.431 11.403-84.843 12.906-85.692 16.006-86.098 19.227-86.781 22.914-86.917 20.128-87.034 17.757-87.17 14.979-90.354 18.155-92.46 20.396-93.42 28.077-93.712 24.271-94.738 16.523-94.958 16.457-95.083 17.094-95.208 17.73-95.333 18.368-95.548 17.393-95.763 16.417-95.992 15.376-97.824 16.259-98.314 17.713-98.276 19.517-98.268 19.903-98.518 21.328-98.603 22.365-98.603 22.367-98.859 23.619-98.86 23.618-99.262 25.885-99.217 26.983-99.429 29.461-99.53 28.551-99.514 26.594-99.555 25.858-99.665 25.824-99.792 32.535-99.361 35.49-99.048 37.637-98.981 39.86-98.796 42.521-98.63 39.591-98.048 36.543-97.883 33.612-97.459 37.573-97.205 38.802-96.972 39.924-96.771 39.929-96.214 32.565-95.78 30.101-95.816 33.588-95.11 37.874-95.15 41.703-95.15 41.703-93.383 34.899-92.94 32.226-92.971 37.475-92.723 47.983-92.569 47.989-92.147 42.114-91.592 35.54-90.71 30.387-90.911 35.706-91.056 38.649-89.775 42.31-89.647 41.884-89.519 41.457-89.39 41.031-89.284 41.041-89.468 43.226-89.53 44.316-89.582 45.233-89.214 47.369-89.469 50.631-88.854 48.958-87.823 44.391-87.335 42.381-86.996 46.257-85.995 54.228-85.772 54.25-84.669 46.763-83.565 39.274-82.462 31.786-82.421 33.739-82.359 34.268-82.314 35.493-82.267 36.813-81.83 41.667-81.807 42.232-81.722 44.351-81.41 45.663-81.362 48.757-81.129 46.978-81.087 45.431-80.557 43.292-80.197 44.923-79.943 45.537-79.788 46.431-79.594 46.483-79.117 45.813-78.82 44.521-78.723 44.58-78.482 49.295-78.269 51.452-77.678 47.928-77.07 44.406-76.509 40.877-76.379 40.057-76.152 38.939-75.897 37.097-75.716 38.806-75.33 41.736-75.148 43.446-74.934 43.428-74.547 41.36-74.568 40.344-74.086 42.402-73.896 43.387-73.558 44.167-70.928 38.291-70.582 32.267-69.574 26.327-69.558 29.84-68.889 36.875-68.57 36.88-68.256 33.909-67.205 27.865-66.993 27.813-67.358 31.471-66.536 35.307-64.46 38.484-63.189 34.714-60.775 29.078-60.087 25.336-59.386 21.523-59.439 17.572-58.759 13.64-58.403 16.775-57.756 21.338-56.729 23.088-56.395 20.479-55.843 17.875-55.771 15.259-55.617 9.641-55.428-2.651-55.291-3.174-55.065-3.188-53.923 6.561-53.785 11.203-53.55 9.934-53.481 8.85-53.446 7.726-52.859 8.742-52.524 17.111-52.619 21.112-52.165 20.734-51.498 19.94-50.958 18.193-50.481 20.957-50.321 27.076-50.17 27.09-49.522 23.112-48.875 19.136-48.21 15.054-47.882 19.529-47.559 23.947-47.235 28.365-47.106 28.357-46.392 25.695-46.164 24.373-45.979 24.399-45.62 31.981-45.112 34.618-44.222 32.902-43.079 29.122-42.81 27.069-42.606 25.521-42.381 23.861-42.236 22.45-41.067 27.279-39.857 32.278-38.646 37.277-38.48 37.27-38.246 34.748-37.963 33.761-37.807 34.272-37.229 35.903-37.122 36.255-36.861 35.534-36.57 34.729-36.097 33.421L-33.834 38.892-32.268 27.031C-32.109 31.693-30.926 35.991-28.375 39.845-28.08 39.758-27.105 23.853-26.973 23.833-26.778 25.376-26.489 26.915-26.408 28.464-26.184 32.703-26.206 36.962-25.819 41.185-25.563 43.975-24.683 45.579-23.953 48.058-22.569 45.557-19.833 39.854-18.379 37.226L-16.635 39.924-15.203 33.056C-15.004 33.065-13.792 38.171-13.269 40.733L-12.102 39.034C-11.698 39.996-9.688 42.528-9.383 42.489-8.622 37.269-7.86 32.049-7.026 26.335-6.782 27.209-6.614 27.651-6.541 28.109-6.456 28.639-5.995 32.212-5.579 32.532-5.207 32.817-4.685 30.179-4.576 29.352-4.385 27.901-4.333 26.378-4.208 24.862-3.976 24.861-3.363 26.833-3.29 27.819H-3.289C-2.221 20.216-2.348 21.118-1.578 15.638-1.556 15.855-1.542 16.073-1.51 16.289-1.254 17.967-.725 19.603 .093 21.185 .714 13.999 2.425 6.858 0 0M-14.283-4.133C-13.593-4.353-12.921-4.566-12.369-4.741-12.552-6.278-12.708-7.579-12.863-8.88-12.673-8.906-12.483-8.933-12.293-8.958-12.194-8.489-12.094-8.02-11.995-7.551-11.298-10.914-9.512-14.336-12.578-17.699-12.851-16.802-13.074-16.069-13.345-15.176-13.807-15.265-14.265-15.354-14.8-15.457-15.135-13.411-15.744-11.473-15.68-9.556-15.622-7.826-14.827-6.121-14.283-4.133M-23.452 5.65C-22.077 6.594-20.752 7.502-19.251 8.532-19.344 7.21-19.438 5.866-19.532 4.522-19.687 4.521-19.843 4.521-19.999 4.52-20.092 5.196-20.186 5.872-20.28 6.548-20.187 4.571-21.228 3.54-23.22 3.504-23.268 3.947-23.366 4.86-23.452 5.65M-16.633-11.793C-16.695-12.478-17.588-13.088-18.334-14.026-18.951-12.187-19.463-10.657-20.008-9.029-20.274-10.579-20.53-12.068-20.786-13.558-21.033-13.577-22.596-8.953-22.864-6.591-22.911-6.178-21.609-5.611-20.93-5.116-20.766-5.295-20.602-5.475-20.437-5.653-20.588-5.209-20.715-4.754-20.9-4.323-21.018-4.049-21.222-3.811-21.505-3.373-22.888-4.861-23.987-4.441-24.879-2.947-25.981-3.598-28.317-1.813-28.271 .325-26.929-.558-25.99-1.175-25.051-1.792-24.451-1.089-23.851-.386-22.766 .885-22.613-.366-22.549-.896-22.484-1.427-22.351-1.408-22.217-1.389-22.083-1.37-21.96-.44-21.838 .489-21.715 1.42-21.528 1.431-21.34 1.442-21.153 1.454-20.925 .784-20.698 .115-20.424-.693-19.635 .917-18.884 2.451-18.133 3.986-17.907 3.927-17.682 3.868-17.456 3.81-17.575 2.886-17.694 1.963-17.813 1.039L-17.808 1.048C-17.735 1.054-17.647 1.057-17.557 1.059-17.736 .851-17.981 .641-17.971 .443-17.867-1.584-17.826-3.561-19.207-5.3-19.356-5.488-18.763-6.266-18.501-6.798-17.771-5.378-17.054-4.428-16.811-3.37-16.617-2.523-16.987-1.543-17.129-.625-17.216-.06-17.339 .5-17.449 1.062-17.185 1.067-16.924 1.073-16.908 1.14-16.611 2.359-16.608 3.705-16.075 4.795-15.745 5.467-14.636 5.758-13.877 6.22-13.524 5.402-12.637 4.237-12.906 3.825-14.248 1.769-13.509-1.199-15.931-2.791-16.398-3.098-16.456-4.218-16.483-4.971-16.568-7.245-16.429-9.533-16.633-11.793M-16.893-49.134C-17.197-48.615-17.502-48.097-18.007-47.236-18.034-48.721-18.055-49.826-18.075-50.932-18.304-50.916-18.534-50.9-18.763-50.886-18.652-49.12-18.541-47.354-18.43-45.589-18.101-45.559-17.771-45.529-17.443-45.5-17.072-46.63-16.702-47.761-16.331-48.891-16.518-48.972-16.706-49.053-16.893-49.134M-23.179-85.23C-23.496-82.67-23.813-80.108-24.131-77.548-24.327-77.558-24.792-89.36-24.641-94.783-24.787-94.788-25.403-92.581-26.252-87.194-26.171-91.114-26.292-98.979-26.433-98.99-26.672-97.653-26.911-96.316-27.15-94.98-27.269-99.234-27.976-107.761-28.211-107.77-28.517-106.169-28.823-104.567-29.261-102.28-29.603-105.559-29.869-108.11-30.209-111.368-30.877-110.182-31.703-107.836-31.801-107.225-35.276-111.872-33.686-121.817-33.903-121.87-35.125-118.314-34.958-109.612-34.836-105.158-34.277-105.438-33.57-105.793-33.009-106.074-30.607-102.075-28.971-96.772-29.004-90.844-28.138-91.898-28.022-93.121-27.335-93.404-27.492-91.387-27.479-80.084-25.015-72.041-24.71-72.699-24.464-74.516-24.26-74.959-24.048-73.561-23.847-73.119-23.369-72.646-23.04-76.989-22.946-79.237-23.179-85.23M-31.376-118.294C-34.193-115.583-33.113-111.622-32.096-108.593-31.906-110.436-31.126-111.087-30.98-112.104-30.702-114.037-31.165-115.794-31.376-118.294M-36.505-59.016C-36.29-57.231-35.042-56.416-34.071-54.721-33.865-54.752-33.643-54.943-33.5-55.341-32.133-54.069-28.155-53.883-28.081-53.545-29.923-58.311-31.384-72.354-33.175-72.169-35.324-72.1-37.028-63.349-36.505-59.016M-37.01-111.516C-36.883-113.719-36.943-116.77-37.086-116.813-37.343-116.382-37.6-115.949-37.982-115.305-38.34-115.836-39.978-117.419-40.082-117.573-40.844-116.684-41.661-113.375-41.878-112.94-42.709-114.949-43.589-117.079-44.47-119.209-44.685-119.135-45.299-115.356-45.392-113.542-47.876-119.479-45.355-124.285-44.57-125.473-43.828-122.644-41.947-116.437-41.67-116.186-41.786-116.936-41.93-117.685-41.977-118.439-42.161-121.399-41.988-123.335-43.377-127.6-43.897-126.893-44.417-126.185-44.938-125.478-45.029-126.25-44.978-131.155-45.08-132.019-45.376-129.244-45.943-127.589-46.435-127.386-46.415-128.609-46.432-139.223-46.415-140.321-46.753-135.323-47.431-128.969-47.815-121.188-48.183-121.639-49.191-126.21-49.458-126.235-49.973-122.506-50.489-118.776-51.07-114.574-52.277-117.135-51.709-119.628-51.477-122.402-54.505-119.057-53.226-108.951-50.86-108.273-50.487-110.604-50.133-112.814-49.779-115.026-49.603-115.033-49.031-110.245-48.941-108.281-47.494-107.647-46.158-107.107-44.861-106.484-42.936-105.561-40.823-106.867-40.125-109.522-40.084-107.256-39.479-105.511-36.313-105.749-36.121-108.61-35.915-111.677-35.662-115.446-36.078-113.655-36.454-112.495-37.01-111.516M-38.959-125.319C-38.956-124.619-38.953-124.146-38.95-123.617-39.347-123.802-39.695-123.964-40.024-124.116-41.246-120.603-38.735-116.812-38.09-116.642-36.974-119.166-36.962-122.705-38.959-125.319M-51.581-142.394C-52.503-140.316-54.727-128.233-55.495-126.504-55.6-128.124-55.596-129.445-55.516-131.431-55.508-131.627-57.35-136.6-57.693-137.261-57.911-137.223-57.147-123.606-56.898-123.567-56.542-124.187-55.683-124.91-55.326-125.529-55.165-123.632-54.675-122.36-54.12-120.037-50.455-123.742-51.231-138.129-51.581-142.394M-52.022-94.587C-52.965-93.732-55.271-92.656-56.009-91.987-55.219-91.563-53.086-88.366-52.451-85.252-52.606-86.867-51.9-93.319-52.022-94.587M-41.21-57.628C-41.539-57.607-41.505-57.609-41.834-57.59L-42.546-54.2C-42.848-55.53-43.026-56.315-43.214-57.145-43.624-56.64-44.08-56.24-44.322-55.738-44.763-54.827-45.31-53.815-43.624-53.463-43.31-53.397-43.09-52.885-42.828-52.578L-42.824-52.575C-41.987-53.023-41.149-53.473-39.996-54.09-40.334-55.076-40.772-56.353-41.21-57.628M-38.924-87.972C-39.427-86.475-40.868-83.77-41.103-83.859-41.444-85.794-42.836-89.854-43.191-89.949-43.418-88.751-44.193-86.404-44.353-86.429-44.316-87.455-44.985-90.746-45.355-91.365-45.886-90.868-46.259-90.391-46.859-89.827-46.878-90.291-47.935-92.35-48.362-92.833-48.83-92.353-49.248-89.612-49.433-88.557-49.495-88.198-49.872-83.052-49.782-83.409-48.956-86.714-48.765-88.048-48.18-88.78-46.986-86.269-46.97-83.743-46.605-81.821-46.033-82.091-44.619-83.568-44.556-85.522-43.396-83.441-43.392-81.789-43.015-80.899-42.093-81.312-42.475-84.41-40.728-81.773-40.28-81.099-39.107-78.199-38.837-76.356-36.185-80.403-39.974-84.234-38.924-87.972M-52.302-57.366C-52.28-55.604-52.265-54.328-52.239-52.212-51.192-53.314-50.607-53.931-50.022-54.547-49.87-54.352-49.699-54.133-49.528-53.913-49.375-53.959-49.222-54.005-49.069-54.05-49.372-55.038-49.675-56.026-50.138-57.538-50.658-56.67-50.871-56.314-51.089-55.951-51.382-56.294-51.684-56.645-52.302-57.366M-51.922-61.793C-51.715-62.449-51.508-63.106-51.256-63.902-50.987-63.52-50.751-63.185-50.515-62.85-50.449-62.871-50.383-62.894-50.317-62.916-50.814-64.118-51.312-65.32-52.017-67.026-52.17-65.008-52.288-63.456-52.406-61.904ZM-54.308-35.727C-53.462-33.681-52.616-31.634-51.81-29.683-51.405-29.987-50.761-30.473-49.716-31.26-50.666-31.744-51.404-32.12-51.776-32.31-52.477-33.682-53.075-34.852-53.673-36.021-53.885-35.923-54.097-35.825-54.308-35.727M-56.947-31.039C-56.672-31.005-56.396-30.971-56.121-30.937-55.865-32.078-55.567-33.212-55.38-34.365-55.321-34.732-55.56-35.148-55.662-35.542-55.939-35.291-56.405-35.075-56.46-34.782-56.689-33.547-56.796-32.289-56.947-31.039M-56.102-71.701C-55.847-69.819-55.592-67.937-55.34-66.076-54.482-67.159-53.458-68.453-52.598-69.54-51.618-67.798-50.434-65.691-48.893-62.951-47.694-65.251-46.778-67.007-45.944-68.607-45.89-67.777-45.818-66.686-45.747-65.594-45.579-65.585-45.41-65.575-45.242-65.566-45.031-66.808-44.82-68.05-44.609-69.291-44.404-69.277-44.2-69.265-43.996-69.251-44.057-67.501-44.118-65.751-44.179-64.002-43.945-63.982-43.712-63.964-43.479-63.945-43.458-65.76-43.465-67.576-43.408-69.39-43.374-70.475-43.405-71.605-43.106-72.629-42.726-73.927-43.536-75.995-44.838-76.44-45.475-76.658-46.104-76.895-47.27-77.314-47.26-76.394-47.309-75.459-47.225-74.536-47.143-73.63-46.985-72.729-47.01-71.804-47.14-73.955-50.174-75.731-47.195-78.291-47.477-78.316-47.759-78.342-48.041-78.366-48.618-78.128-49.195-77.889-49.776-77.649-49.935-78.291-50.114-79.016-50.339-79.925-50.875-79.557-51.248-79.3-51.621-79.043-51.83-79.01-52.039-78.978-52.247-78.944-52.751-79.284-53.255-79.624-53.984-80.117-54.345-79.101-54.687-78.138-55.029-77.175-55.846-76.231-53.399-74.431-55.883-73.924-55.829-75.476-55.746-77.027-55.732-78.58-55.724-79.466-55.828-80.354-55.881-81.239L-56.889-81.207C-57.007-77.874-57.125-74.542-57.263-70.637-56.597-71.247-56.349-71.475-56.102-71.701M-57.899-128.254C-58.235-127.851-58.535-127.269-58.821-125.982-58.856-125.562-58.801-127.91-58.836-127.491-59.029-129.369-59.234-130.303-59.661-131.549-60.417-126.651-61.06-122.478-61.704-118.304-61.836-118.307-62.875-126.491-63.11-126.488-63.159-125.612-65.731-122.487-64.505-116.123-64.189-116.569-63.634-118.119-63.039-118.199-62.329-115.656-61.769-113.646-61.083-111.187-60.76-114.669-60.553-117.783-60.149-120.871-59.953-122.376-59.39-123.833-58.993-125.312-59.124-121.178-60.753-111.559-55.173-109.263-52.133-113.338-55.278-121.058-55.564-123.631-56.295-121.852-56.747-120.638-57.021-120.592-57.024-121.594-57.35-123.616-57.51-123.625L-57.927-121.202C-58.049-121.202-57.904-126.564-57.899-128.254M-65.035-132.246C-65.344-129.29-65.654-126.335-66.001-123.021-63.857-125.875-63.342-129.717-65.035-132.246M-67.468-126.427C-67.662-126.422-68.431-119.371-69.141-117.312-69.452-121.194-68.851-128.384-69.628-133.247-71.344-126.969-74.983-115.407-73.22-108.104-71.45-108.339-70.92-112.025-70.603-114.438-70.676-112.532-70.264-109.779-69.924-108.426-67.322-107.972-61.828-110.6-61.905-111.009-62.206-112.616-62.675-114.192-63.147-116.036-64.039-115.071-64.624-114.438-65.595-113.387-66.038-116.798-67.098-123.581-67.468-126.427M-74.252-93.034C-74.366-92.128-75.538-88.716-75.601-87.201-76.13-87.869-75.839-92.208-76.055-92.244-76.48-90.365-77.336-87.053-77.677-85.549-78.157-86.299-79.257-91.527-79.456-92.199-79.244-89.107-80.684-87.508-80.938-86.142-84.751-81.905-82.04-79.449-81.404-77.585-80.896-80.254-79.794-85.04-79.075-87.37-79.003-85.98-77.488-78.804-77.253-78.687-76.406-82.372-75.866-84.839-74.034-86.819-74.341-85.221-74.521-82.318-74.33-81.27-73.779-82.329-72.57-86.208-71.831-87.158-72-85.295-70.7-83.082-70.439-83.062-70.319-84.132-69.305-87.882-69.383-88.937-69.507-90.628-70.179-90.802-69.035-93.852-69.797-92.739-72-89.979-72.254-88.133-73.356-89.343-74.005-93.054-74.252-93.034M-75.347-119.226C-75.399-117.759-75.612-113.725-75.665-112.257-77.041-113.989-77.645-115.212-78.963-117.881-78.788-115.726-78.651-110.075-76.766-106.704-74.931-109.584-73.97-111.368-75.347-119.226M-76.639-128.735C-77.133-126.915-77.962-117.499-76.612-115.164-76.294-118.452-74.533-124.495-76.639-128.735M-80.35-129.586C-80.653-127.735-82.553-123.616-82.251-117.499-79.805-120.867-78.889-118.738-78.55-120.581-78.2-122.487-78.983-127.286-80.35-129.586M-80.297-108.511C-80.073-111.398-79.825-117.994-79.947-118.254-82.234-117.25-83.357-112.008-81.904-107.498-81.562-110.49-80.715-115.262-80.567-115.256-80.671-113.025-80.706-111.389-80.297-108.511M-82.982-121.116C-85.047-120.589-85.49-119.094-85-113.973-84.695-115.506-84.445-116.76-84.153-118.223-83.653-117.692-83.349-117.37-82.732-116.718-82.83-118.431-82.905-119.767-82.982-121.116M-83.067-116.076C-83.32-116.082-84.104-111.838-84.243-109.711-83.937-109.708-83.632-109.706-83.327-109.703-83.24-111.828-83.153-113.952-83.067-116.076M-86.523-64.075C-86.583-64.94-86.643-65.806-86.713-66.82-88.167-64.894-88.583-59.562-87.436-56.2-87.316-58.693-87.22-60.692-87.124-62.691L-86.329-62.659C-86.308-60.256-86.286-57.854-86.265-55.45-86.1-55.427-85.935-55.402-85.769-55.379-85.623-55.776-85.476-56.174-85.335-56.558-84.438-55.767-83.751-54.294-82.117-55.384-81.965-55.073-81.813-54.763-81.661-54.453-81.421-55.128-81.176-55.808-80.858-56.689-80.517-56.667-79.931-56.628-79.292-56.586-79.265-56.805-79.169-57.042-79.22-57.243-79.908-59.992-80.702-62.72-81.282-65.491-81.557-66.807-82.79-74.026-84.06-74.365-84.738-73.772-86.061-66.594-86.099-64.09ZM-87.013-115.426C-87.168-116.909-87.298-118.16-87.429-119.411-87.645-119.398-87.477-107.987-87.596-107.964-87.846-108.696-88.359-112.333-88.479-112.321-88.509-109.686-88.764-104.854-88.794-102.179-86.048-103.133-86.425-113.889-86.318-117.065-86.659-116.682-86.578-115.915-87.013-115.426M-88.335-47.65C-84.622-48.229-84.115-49.331-85.513-53.029-86.719-52.639-87.922-52.248-89.125-51.857-88.856-50.465-88.596-49.06-88.335-47.65M-89.153-51.849C-90.709-51.727-91.698-50.309-91.155-48.748-90.813-47.764-90.211-46.871-89.714-45.941-89.521-47.912-89.327-49.884-89.134-51.854-89.141-51.853-89.147-51.851-89.153-51.849M-89.312-103.58C-89.543-103.6-91.529-97.367-89.311-90.577-89.311-94.911-89.312-99.246-89.312-103.58M-91.622-95.946C-92.135-95.6-93.716-86.612-93.995-82.467-94.042-81.763-92.245-92.331-92.08-92.326-92.186-90.352-92.01-86.363-92.116-84.388-91.795-84.395-91.466-92.1-91.622-95.946M-95.294-75.293C-95.062-75.292-94.829-75.29-94.597-75.288L-94.53-82.161C-94.77-82.163-95.279-77.584-95.294-75.293M-96.027-50.306C-96.274-50.754-96.455-51.085-96.637-51.416-96.87-51.363-96.829-47.826-96.574-46.109-95.981-47.908-95.135-51.656-95.304-51.732-95.529-51.289-95.753-50.846-96.027-50.306M-81.625-54.116C-81.724-52.894-81.823-51.669-81.925-50.407-81.202-50.285-80.607-50.185-80.01-50.083-78.246-52.352-81.134-52.762-81.625-54.116M-62.852-53.609C-62.098-53.978-61.502-54.269-60.57-54.723-60.496-55.331-60.384-56.252-60.272-57.172-62.141-57.984-62.141-57.984-62.852-53.609M-69.576-50.095C-68.866-50.034-68.139-49.972-67.03-49.877-67.469-50.938-67.875-51.919-68.28-52.9-68.506-52.909-68.732-52.918-68.958-52.927-69.164-51.982-69.37-51.039-69.576-50.095M-66.85-54.871C-67.405-56.212-67.67-57.626-68.502-58.499-68.852-58.866-70.4-58.093-71.729-57.755-71.767-56.782-71.812-55.645-71.861-54.359-69.993-54.55-68.702-54.682-66.85-54.871M-70.399-74.369C-70.481-75.096-70.93-75.78-71.219-76.483-71.619-75.888-72.329-75.309-72.362-74.693-72.467-72.743-72.208-70.774-72.314-68.824-72.368-67.845-72.909-66.893-73.23-65.928-73.485-65.992-73.74-66.057-73.995-66.121-73.404-65.246-72.813-64.371-72.232-63.511-71.538-65.901-70.856-68.247-70.174-70.593-70.388-71.178-70.748-71.758-70.769-72.351-70.792-73.02-70.326-73.72-70.399-74.369M-64.566-96.097C-65.202-96.019-66.898-94.618-67.213-94.19-67.462-93.853-68.547-90.707-68.23-90.336-67.595-91.226-66.366-93.279-65.604-93.83-65.538-93.641-65.449-92.009-65.211-91.32-64.802-91.732-64.502-94.487-64.566-96.097M-60.495-94.524C-60.767-94.005-61.04-93.485-61.267-93.054-61.625-93.731-62.025-94.489-62.425-95.247-62.672-95.104-62.201-92.483-61.398-90.542-60.718-92.179-60.285-94.427-60.495-94.524M-60.558-81.768C-65.016-79.388-62.412-75.023-63.542-71.16-63.768-72.238-63.894-72.842-64.021-73.445L-64.384-73.513-65.02-69.997-65.682-72.704C-65.894-74.525-66.149-76.266-64.521-77.781-63.988-78.276-64.191-79.563-64.026-80.711-64.771-80.403-65.369-79.97-65.992-79.933-68.055-79.808-68.562-77.831-69.456-76.675-70.299-75.584-69.73-73.729-68.129-72.741-67.573-72.397-67.21-71.74-66.759-71.227-67.619-71.621-68.479-72.015-69.478-72.473-69.718-71.813-69.941-71.201-70.164-70.588-70.205-69.702-70.344-68.791-70.247-67.906-70.148-67.007-69.804-66.134-69.514-65.049-68.831-65.184-68.128-65.322-67.312-65.482-67.125-65.029-66.933-64.566-66.588-63.732-65.964-65.309-65.474-66.546-64.983-67.783-64.948-67.103-64.912-66.422-64.876-65.74-64.732-65.717-64.588-65.693-64.444-65.67-64.195-66.331-63.945-66.993-63.545-68.052-63.048-66.561-62.651-65.373-62.255-64.186-62.152-64.171-62.05-64.155-61.947-64.141-61.794-65.77-61.641-67.398-61.441-69.532-61.001-68.603-60.766-68.104-60.381-67.291-59.792-72.053-59.24-76.521-58.672-81.108-59.042-81.237-59.807-81.505-60.558-81.768M-91.783 11.627C-91.188 11.649-89.665 9.382-89.469 8.916-89.139 8.133-88.854 6.19-88.356 5.461-88.651 5.304-88.947 5.147-89.242 4.99-89.328 5.245-89.413 5.5-89.499 5.755-90.014 5.646-90.915 5.336-90.978 5.458-91.313 6.107-91.586 10.907-91.783 11.627M-90.724 2.435C-90.354 2.12-89.826 1.515-89.395 .884-89.008 1.03-88.506 1.221-88.004 1.417-88.14-.827-88.508-3.31-88.69-3.319-88.902-2.69-89.22-1.676-89.262-.933-89.469-1.674-89.725-2.015-90.23-2.82-90.56-.791-91.56 1.578-91.825 3.219-91.55 3.028-91.217 2.854-90.724 2.435M-99.136-47.101C-100.025-45.776-100.968-44.371-101.911-42.967-102.108-42.979-102.305-42.991-102.503-43.004-102.547-44.459-103.047-47.392-103.252-47.402-103.313-46.181-102.979-42.763-103.096-42.381-103.779-40.149-103.267-38.981-100.557-39.579-102.924-38.274-101.447-28.437-100.735-25.59-100.333-23.982-100.374-22.264-100.214-20.595-100.093-19.326-99.979-17.866-99.789-12.879-99.408-13.648-98.388-18.23-98.008-19-97.847-19.001-98.4-13.072-98.797-11.139-95.405-11.862-96.135-17.549-96.38-18.416-96.708-19.579-96.738-20.826-96.662-22.063-95.526-21.092-95.863-18.796-93.481-19.386-93.396-19.407-93.029-18.608-92.923-18.161-92.579-16.7-92.259-15.229-92.033-13.747-92.007-13.578-92.583-13.317-92.909-13.095-92.799-12.344-92.797-11.551-92.528-10.861-92.14-9.865-91.545-8.949-91.038-7.999-90.341-8.749-89.606-9.469-88.969-10.267-88.763-10.525-88.815-10.991-88.654-11.891-88.255-11.077-88.074-10.708-87.528-9.596-85.918-12.513-84.536-15.047-83.109-17.556-82.963-17.812-82.552-17.916-81.934-18.291-81.986-18.984-82.574-20.473-82.077-21.336-80.331-24.369-80.845-27.811-79.906-30.956-79.253-30.238-78.6-29.521-77.947-28.804-77.671-28.842-77.395-28.88-77.119-28.917-76.586-31.087-76.054-33.256-75.522-35.426-75.204-34.249-74.886-33.073-74.567-31.896-74.358-31.891-74.148-31.884-73.939-31.877-73.737-32.789-73.536-33.7-73.334-34.612-73.192-34.486-73.05-34.361-72.908-34.235-72.639-34.538-72.094-34.901-72.145-35.135-72.446-36.514-72.873-37.864-73.263-39.223-75.094-39.019-74.327-36.904-75.297-36.067-75.519-37.334-74.58-39.28-77.158-39.186-77.354-39.179-77.821-39.889-77.74-40.042-76.991-41.465-76.149-42.838-75.531-43.891-74.802-42.577-74.03-41.187-73.255-39.792-72.72-40.297-72.496-40.11-71.519-38.554-70.523-40.052-69.659-41.351-68.797-42.647-68.42-41.688-67.811-40.825-69.033-39.281-69.887-38.203-69.492-36.135-69.676-34.299-67.937-34.702-66.705-35.614-66.794-37.268-66.893-39.09-67.521-40.883-68.067-43.363-66.833-41.289-65.931-39.773-65.029-38.258L-64.352-38.51C-64.242-39.752-64.122-40.994-64.025-42.237-63.936-43.376-63.872-44.517-63.472-45.676-63.245-44.049-63.017-42.423-62.748-40.501-59.667-43.984-59.61-47.664-60.07-52.203-60.887-51.058-61.292-50.489-61.95-49.565-62.07-50.53-62.145-51.132-62.22-51.732-62.38-51.762-62.541-51.791-62.701-51.821-62.924-50.318-63.147-48.816-63.371-47.313-63.49-47.311-63.61-47.309-63.729-47.307-63.765-48.107-63.8-48.909-63.836-49.719-65.706-49.999-65.706-49.999-65.041-52.5-65.262-52.571-65.483-52.643-65.705-52.713-66.164-51.28-66.622-49.848-67.092-48.38-67.93-48.938-68.761-49.493-69.592-50.048-70.029-49.189-70.458-48.328-70.883-47.479-71.287-48.144-71.753-48.911-72.277-49.774-72.864-48.479-73.396-47.306-73.938-46.111-74.449-47.349-75.009-48.702-75.569-50.056-75.761-50.055-75.953-50.054-76.146-50.053-76.668-48.562-77.191-47.072-77.734-45.525-79.141-48.774-79.141-48.774-81.564-49.618-81.771-48.181-81.974-46.764-82.177-45.346-82.308-45.345-82.438-45.343-82.569-45.342-82.63-46.437-82.69-47.532-82.792-49.372-85.654-47.001-85.967-44.192-86.228-41.218-87.045-42.888-87.71-44.348-88.495-45.739-88.607-45.938-89.3-45.81-89.725-45.832-89.723-45.851-89.721-45.868-89.719-45.887-90.753-46.46-91.74-47.254-92.846-47.486-93.507-47.625-94.894-46.975-95.029-46.442-95.375-45.084-95.999-45.85-96.552-45.962L-96.551-45.953C-96.565-45.959-96.58-45.966-96.594-45.973-96.602-45.974-96.61-45.978-96.618-45.979-96.617-45.979-96.617-45.98-96.616-45.982-97.392-46.326-98.178-46.675-99.136-47.101M-101.568-27.525C-102.098-29.485-102.292-35.178-102.822-37.139-102.929-37.191-103.036-37.244-103.143-37.297-103.407-35.455-103.809-33.614-103.825-31.77-103.829-31.385-101.707-27.305-101.568-27.525M-106.401-28.517C-106.244-27.983-106.163-23.238-106.08-23.3-105.754-23.537-104.837-27.435-104.533-27.702-104.349-27.335-104.057-26.983-104.001-26.599-103.814-25.298-103.711-23.985-103.178-22.686-103.097-23.177-103.015-23.667-102.933-24.157-102.777-24.172-102.375-21.488-102.329-20.111-99.819-21.573-100.999-25.412-104.777-31.719-105.126-29.526-105.317-25.937-106.401-28.517M-105.166 3.97C-105.974 4.85-106.715 11.225-106.99 13.109-106.386 12.933-105.389 6.897-105.166 3.97M-108.134 21.751C-108.113 22.849-108.137 23.933-108.007 25.733-107.654 23.302-107.139 15.948-107.117 13.555-107.901 16.478-108.18 19.344-108.134 21.751M-103.461 19.481C-103.363 18.954-103.305 17.516-103.475 15.524-103.686 18.002-103.898 18.616-104.322 20.29-104.322 15.863-104.49 14.232-104.49 14.232-104.491 13.152-104.385 11.839-104.616 10.183-104.84 11.686-104.943 14.314-105.021 15.186-105.146 16.604-105.215 18.142-105.317 19.4-105.381 20.184-105.338 21.646-105.317 22.429-105.279 23.842-105.021 26.496-104.973 28.499-104.973 28.493-105.381 39.124-105.381 39.119-104.88 36.118-104.02 22.472-103.461 19.481M-102.238 35.185C-102.042 32.498-100.34 27.279-102.885 18.104-102.891 23.781-102.46 35.168-102.238 35.185M-104.059-5.26C-105.005-3.05-104.691-2.464-101.901-1.7-102.066-3.123-102.199-4.267-102.333-5.41-102.505-5.397-102.677-5.385-102.85-5.372-102.85-4.594-102.849-3.815-102.848-2.332-103.407-3.684-103.703-4.4-104.059-5.26M-97.857-8.717C-98.217-8.143-98.746-7.298-99.274-6.453-99.532-6.528-99.789-6.604-100.046-6.679-100.297-7.286-100.548-7.894-100.807-8.521-101.027-8.43-101.657-5.578-101.851-4.202-101.665-4.155-100.685-4.74-100.252-5.224-99.984-4.101-99.772-3.208-99.563-2.327-98.962-2.614-95.912-6.55-97.857-8.717M-93.6-7.261C-93.363-9.295-93.142-11.191-92.921-13.086-92.928-13.082-92.936-13.077-92.942-13.073-93.055-14.76-93.167-16.446-93.28-18.133-93.511-18.139-93.742-18.144-93.973-18.149-94.439-14.496-97.111-11.212-95.579-7.017-94.756-7.118-94.094-7.199-93.6-7.261M-95.048-3.788C-95.934-1.802-96.464 .104-96.931 2.811-97.375 1.672-97.692 .825-98.32 .259-98.793 2.731-99.577 4.235-99.896 4.852-100.361 4.256-100.806 3.134-101.322 .411-101.631 3.497-101.462 4.977-101.632 12.114-101.072 10.969-100.338 7.648-99.778 6.502-99.809 7.127-99.641 7.984-99.979 10.356-99.085 8.809-97.716 5.477-96.791 3.875-96.654 4.786-96.078 5.72-95.701 6.904-95.244 3.764-94.807-3.731-95.048-3.788M-100.509 17.516C-100.541 18.508-100.062 20.779-100.043 21.455-100.021 22.266-99.895 23.53-99.641 24.802-99.726 23.001-99.305 18.406-99.895 16.88-100.036 16.517-101.2 16.002-102.415 13.943-102.096 16.105-101.4 19.356-101.081 21.519-100.806 19.781-100.579 17.519-100.509 17.516M-108.981 2.159C-109.32 4.341-109.426 6.819-109.61 8.755-108.388 7.115-108.749 4.277-108.981 2.159M-109.913 26.433C-109.326 22.796-108.786 10.678-108.998 10.578-109.358 11.242-109.681 17.562-109.808 20.015-109.879 21.404-110.146 26.421-109.913 26.433M-111.248 8.111C-111.249 6.912-111.333 4.68-111.576 3.206-111.853 8.673-112.031 19.549-111.417 23.573-111.363 22.734-111.28 18.029-111.202 17.192-111.122 16.335-111.07 15.465-110.875 14.631-110.713 13.944-110.385 13.298-110.118 12.636-110.761 11.373-111.244 10.593-111.248 8.111M85.688-20.313C85.275-25.873 85.466-26.794 85.307-27.747 84.131-23.776 81.446-20.38 80.922-18.089 80.764-19.551 80.249-20.573 79.567-21.73 79.522-21.629 79.302-18.471 79.334-14.467 78.865-17.415 78.422-26.302 77.449-29.844 75.881-28.446 71.126-13.273 70.46-9.077 70.263-7.834 69.912-6.615 69.672-5.377 69.449-4.223 69.281-3.058 69.088-1.897 68.515-9.04 67.452-23.26 63.625-24.563 63.37-23.647 63-22.318 62.629-20.988 62.608-20.984 62.587-20.979 62.566-20.975 62.187-19.675 61.812-18.388 61.44-17.114 61.416-16.808 61.268-16.3 61.218-16.353 60.946-15.422 60.335-12.854 60.081-12.815 59.7-16.585 59.275-20.074 57.566-22.929 57.306-22.706 57.2-22.325 57.039-20.965 56.847-22.283 56.139-24.802 55.945-24.736 55.421-22.494 54.92-18.837 54.892-16.587 54.553-19.487 54.422-20.277 53.938-21.055 52.562-17.708 51.778 6.756 51.948 12.093 51.185-19.551 48.262-1.547 47.711 1.588 46.396-1.568 46.554-1.165 45.179 3.099 44.774 4.357 44.534 5.661 44.449 6.98 44.021 13.637 43.858 27.05 43.878 48.82 42.993 29.121 41.324 7.85 41.116 7.859 40.722 9.806 40.311 11.917 40.383 14.254 39.08 6.479 39.028-1.547 35.11-8.999 34.916-4.032 34.746 .297 34.576 4.626 34.22-1.601 33.858-3.977 33.834-8.473 33.264-8.13 32.536-7.16 32.154-5.921 31.614-7.891 31.017-9.526 30.867-9.481 30.502-7.731 30.216-6.08 29.931-4.11 29.486-8.431 29.327-13.069 27.655-17.426 27.425-15.935 27.217-14.59 27.01-13.245 26.5-14.943 26.658-16.088 26.009-17.087 25.865-17.078 25.026-6.841 24.721-1.152 23.889-7.614 22.049-19.292 21.494-19.259 21.403-6.525 21.313 6.207 21.223 18.939 20.749 11.235 19.796-15.992 19.252-19.447 18.938-18.438 18.779-17.326 18.569-14.588 18.065-17.906 17.561-21.226 16.953-25.226 16.552-21.27 15.657-8.004 15.658-4.613 15.659-1.627 15.373 1.376 15.454 4.362 14.832-.661 15.072-1.284 14.89-4.108 14.745-4.1 14.442 10.622 14.543 17.049 14.247 15.186 13.42 13.228 12.636 12.314 12.543 19.4 12.456 26.145 12.367 32.89 11.747 29.482 11.493 20.544 10.961 18.192 10.933 20.492 10.75 22.854 10.516 25.121 10.369 24.428 9.864 23.062 9.758 23.073 9.725 27.713 9.691 32.352 9.657 36.991 9.489 36.993 8.933 21.862 8.822 14.295 8.609 14.298 8.318 46.648 8.386 62.82 7.575 58.647 6.413 41.419 6.491 38.872 6.058 39.382 5.583 41.343 5.287 43.482 5.247 36.334 4.83 20 4.661 19.995 4.426 28.219 4.19 36.442 3.955 44.667 3.338 39.056 2.608 35.136 2.21 30.39 2.157 29.76 2.064 29.134 1.989 28.505 1.863 28.512 1.425 32.991 1.333 35.225 .848 32.59 .716 29.96 .815 27.338 .875 25.771 .14 24.081-1.088 22.429-1.458 28.583-1.966 34.125-2.928 43.654-4.308 36.493-6.146 34.227-6.171 34.248-6.477 35.086-6.781 37.721-6.855 38.579-7.292 43.653-7.615 48.736-7.975 53.817L-8.109 53.774C-8.2 51.653-8.208 49.522-8.432 47.414-8.5 46.767-9.196 45.758-9.54 45.657-11.17 45.177-12.352 44.488-13.42 42.816-13.703 44.732-13.915 49.021-14.135 50.515-14.615 47.126-15.178 45.456-15.533 44.33-15.802 43.479-16.423 42.551-17.482 42.169-18.837 48.565-18.746 52.771-19.59 58.089-19.966 55.297-21.112 49.753-21.308 49.772-21.541 63.669-22.012 82.547-22.245 82.543-22.168 75.54-22.45 77.442-22.502 70.44-22.555 63.483-21.828 56.493-22.987 49.043-24.471 52.166-24.666 55.173-25.27 58.015-25.36 54.791-25.451 51.568-25.548 48.104-26.228 48.627-26.157 49.24-26.558 49.773-26.939 47.358-27.669 45.516-27.984 43.235-27.998 43.137-28.026 42.906-28.125 42.815-29.524 41.522-30.936 40.244-32.112 39.174L-33.801 43.292C-34.17 42.225-35.136 39.987-35.447 38.527-35.564 38.409-35.681 38.29-35.797 38.172-35.797 38.172-37.12 38.714-37.127 38.797-37.439 39.913-38.102 41.536-38.503 42.974-39.361 39.416-40.505 37.891-43.095 34.864-43.597 44.333-44.091 53.637-44.584 62.941-45.175 58.479-45.349 46.186-45.421 37.819-45.874 40.273-46.296 41.175-46.355 41.175-46.829 37.373-48.214 29.806-48.433 29.824-48.74 32.964-49.047 36.104-49.354 39.243-50.623 35.764-49.401 31.982-50.958 28.316-51.607 30.954-52.145 33.14-52.71 35.438-53.086 35.004-53.363 34.685-53.979 33.974-54.104 38.76-54.216 43.087-54.329 47.415-54.524 47.416-54.718 47.418-54.913 47.419-55.296 41.197-54.047 34.818-56.678 28.767-56.887 30.932-57.185 35.222-57.216 37.732-57.534 35.953-57.964 34.92-58.348 34.708-58.836 35.698-58.887 37.394-58.979 37.377-59.411 35.534-59.842 33.691-60.274 31.849-61.26 36.059-63.104 40.813-64.032 43.734-64.864 42.393-67.121 39.728-67.34 39.755-67.714 42.383-67.823 43.174-68.103 45.813-68.372 48.349-68.781 52.082-69.131 55.66-69.47 50.858-69.809 46.057-70.148 41.255-73.66 54.807-73.152 68.651-74.272 82.391-74.396 71.003-75.72 48.006-75.855 48.015-76.92 49.951-77.249 51.872-77.888 53.988-78.703 56.684-78.874 58.688-79.225 61.853-79.447 57.822-79.668 53.792-79.894 49.685-81.404 50.854-83.064 59.059-83.099 59.452-83.364 62.498-83.527 61.179-83.794 64.224-83.978 64.221-84.68 60.154-84.843 60.154-85.004 62.778-85.166 65.401-85.326 68.025-85.384 68.014-85.442 68.002-85.5 67.991-86.296 61.401-87.092 54.813-87.92 47.953-88.948 49.901-88.697 51.86-89.908 54.157-90.226 50.917-90.226 47.771-90.681 44.951-90.774 44.37-90.766 43.44-91.041 42.484-91.777 49.068-92.499 55.519-93.22 61.969-93.337 61.963-93.29 61.966-93.407 61.96-93.525 55.275-93.643 48.592-93.761 41.907-93.967 41.881-93.91 41.888-94.116 41.86-94.786 44.256-95.51 46.547-96.683 48.852-98.212 51.855-98.199 55.645-98.856 59.131-99.689 54.542-98.832 48.732-102.712 43.959-103.196 45.477-103.372 46.805-103.417 47.722-103.575 50.878-103.391 54.05-103.513 57.209-103.653 60.831-103.982 64.446-104.229 68.064-104.396 58.446-104.649 52.59-104.842 52.585-105.315 63.949-105.789 75.313-106.262 86.677-106.951 70.421-104.842 54.151-107.493 37.918-107.731 41.29-107.795 42.91-108.084 48.449-108.228 47.989-108.372 47.528-108.704 46.464-109.193 49.582-109.289 50.567-109.679 54.526-109.575 48.705-109.973 37.035-110.277 37.021-110.718 38.876-110.844 40.567-111.136 42.349-111.363 40.457-112.325 34.549-112.434 34.523-112.683 35.688-112.91 37.764-113.54 40.031-113.75 36.432-114.431 29.222-114.562 29.215-115.022 35.377-115.786 41.578-116.246 47.739-116.413 47.729-116.441 35.115-116.609 35.109-117.394 43.462-117.789 50.577-118.979 60.193-119.074 55.206-119.246 44.898-119.438 44.884-120.149 51.344-120.86 57.805-121.572 64.266-121.813 64.241-121.147 39.129-121.431 39.108-122.682 53.328-123.933 67.549-125.184 81.77-125.401 81.758-123.091 50.727-124.138 35.153-124.913 39.494-125.333 43.8-125.574 48.287-125.863 48.254-125.362 28.882-124.821 19.229-124.991 19.2-125.776 25.08-126.032 25.563-126.1 22.827-126.705 15.191-127.196 12.602-127.729 9.794-128.053 6.917-128.467 4.426-129.367 7.409-130.718 20.396-130.839 21.963-131.258 27.364-133.177 42.603-133.305 42.585-132.996 36.587-134.069 24.427-134.482 24.335-135.542 28.953-135.796 35.464-136.403 42.161-136.445 39.202-136.64 33.694-136.792 33.694-137.607 42.625-138.423 51.556-139.239 60.486-139.439 60.473-138.168 21.328-138.296 17.46-138.445 20.493-138.594 23.527-138.743 26.562-138.992 25.91-139.081 17.527-138.923 13.986-138.897 13.413-139.523 16.922-140.032 19.125-140.032 16.329-140.034 4.001-140.159 2.688-140.365 .529-140.623-6.695-141.048-8.833-141.045-8.709-142.428-1.078-142.434-.954-142.436-.898-142.519-.83-142.58-.8L-142.616-11.587C-142.769-7.696-143.972 5.647-144.515 9.503L-144.069-2.45C-144.108-4.7-144.147-6.95-144.187-9.2-144.418-9.199-147.127 19.273-147.858 23.562-147.556 16.381-146.744 5.131-145.941-3.697-146.203-3.724-147.309 2.41-147.602 5.504-147.821 5.487-147.143-9.399-146.58-16.885-147.055-16.831-147.396-16.792-147.652-16.763-146.841-18.598-145.38-29.082-150.331-41.427-151.607-35.658-151.875-30.103-152.801-24.473-153-24.476-153.3-36.406-153.25-42.686-153.917-42.144-154.316-41.818-154.775-41.445L-156.289-45.107C-156.767-45.034-158.566-23.66-158.755-23.649-158.701-27.104-159.973-34.273-160.229-34.265-160.63-33.085-160.76-30.779-160.895-30.781-160.983-32.515-161.07-34.249-161.162-36.063-164.506-30.427-163.397-24.126-164.025-17.8-164.188-21.234-164.414-24.069-164.916-26.696-165.999-25.81-166.916-24.106-167.365-22.22-167.683-20.885-167.842-19.709-168.294-16.8-168.338-18.699-168.382-19.709-168.424-22.497-170.193-14.722-170.271-10.311-170.835-4.21-171.019-11.926-170.352-22.267-171.881-24.345-172.115-23.268-172.306-22.028-172.785-21.51-172.354-25.507-173.497-30.019-175.769-33.402-176.279-32.703-177.458-29.647-177.831-29.235-179.043-27.896-179.74-26.811-180.207-25.69-180.207-25.69-180.936-27.538-181.498-27.531-182.837-27.515-184.198-3.095-185.486 9.141-185.625 6.062-185.437 3.015-185.272-.033-184.774-9.215-184.284-18.396-183.791-27.579-184.462-30.387-185.05-32.265-185.605-35.1-185.722-35.693-186.332-38.358-186.629-39.884-188.705-32.344-189.675-30.061-190.823-27.515-192.075-24.734-193.507-22.891-193.846-20.039-193.95-20.63-194.13-22.011-194.333-23.249-194.659-25.242-195.247-27.292-195.966-29.058-196.636-30.704-197.418-32.854-197.418-32.854-197.418-32.854-199.185-30.587-199.844-29.441-200.143-28.923-200.679-28.189-201.201-28.107-203.331-27.774-203.958-28.707-204.082-26.815-204.124-26.169-204.441-23.659-204.529-22.613L-204.738-25.46C-204.86-27.514-205.061-28.381-207.458-28.327-210.486-28.261-240.897-29.33-243.93-29.463L-210.79-29.394C-208.361-29.48-204.674-29.251-203.848-30.764-201.234-26.921-198.136-35.7-197.215-38.021-196.402-35.533-196.534-35.004-196.159-33.779-195.437-31.192-194.682-28.488-193.78-25.258-193.388-26.377-193.197-26.921-193.008-27.466-192.705-28.338-192.156-29.853-191.754-30.619-191.46-31.182-191.133-32.183-190.734-33.282-189.237-37.411-188.211-41.694-187.578-46.04-187.348-47.621-187.106-49.02-186.819-50.537-186.601-51.692-186.295-52.919-186.107-54.079-186.569-45.578-183.278-31.108-182.35-29.633-181.687-28.577-179.979-28.036-179.375-28.812-178.79-29.562-178.003-31.055-177.639-32.386-176.884-35.013-176.452-36.5-174.656-40.235-175.912-35.579-171.463-28.844-170.129-24.888-169.584-25.16-165.649-35.976-164.188-40.424-163.582-42.268-161.842-53.103-161.747-56.556-161.708-57.945-161.542-59.33-161.434-60.718-161.281-60.702-160.353-55.947-160.185-54.911-159.958-54.937-159.587-64.12-159.264-65.173-159.142-65.136-157.4-58.282-157.357-57.993-157.131-57.996-154.543-100.422-153.026-119.023-152.641-119.001-152.137-92.343-152.56-79.057-152.428-79.046-151.957-90.07-151.448-95.292-151.134-95.289-151.05-85.23-151.099-84.49-151.587-77.077-151.957-59.772-151.543-55.705-151.284-59.592-151.385-61.552-150.304-69.462-150.403-65.858-149.574-60.82-149.129-57.135-148.43-63.839-146.002-101.889-145.888-102.662-145.253-98.596-146.351-55.708-145.303-52.762-145.169-52.768-142.479-94.468-142.267-94.91-142.012-85.03-142.829-62.465-143.283-47.531-143.247-47.587-142.974-48.009-142.521-48.706-142.488-47.481-142.465-46.658-142.443-45.835-142.3-45.824-142.158-45.813-142.016-45.803-141.557-48.802-141.098-51.8-140.639-54.798-140.395-54.774-139.881-41.263-139.741-41.258-139.51-43.573-139.279-45.889-139.048-48.204-138.787-48.175-139.446-30.671-139.249-30.655-138.953-33.687-138.231-39.852-137.183-46.047-136.865-43.95-136.293-39.217-135.881-37.101-135.676-37.105-134.832-52.91-134.387-60.63-133.307-55.134-132.576-51.861-131.624-48.231-131.462-48.221-130.252-61.287-129.81-67.831-129.449-64.125-129.272-60.28-128.891-56.881-128.719-56.879-128.322-68.19-128.039-73.517-127.302-67.778-127.093-60.855-126.801-60.848-126.022-75.402-125.242-89.956-124.463-104.511-124.285-104.507-123.378-95.544-123.257-91.141-122.932-92.569-122.768-94.138-122.676-95.581-122.306-101.422-121.302-135.461-121.097-136.467-120.588-125.792-119.684-97.461-120.165-78.009-118.004-83.812-116.734-109.384-116.521-110.16-116.183-105.84-116.013-95.461-114.673-77.613-114.494-77.591-114.161-82.561-113.811-84.829-113.387-81.439-112.637-77.569-112.485-77.563-111.503-83.245-110.521-88.926-109.477-94.969-109.177-94.242-109.031-93.889-108.929-93.642-108.573-97.759-108.214-101.909-107.855-106.061-107.553-106.038-107.386-86.34-107.163-86.333-106.946-90.444-106.085-98.646-105.872-98.636-105.989-93.037-106.093-81.828-105.878-81.809-104.679-89.188-103.479-96.568-102.279-103.949-102.118-103.936-101.695-90.861-101.135-90.821-100.008-98.877-98.882-106.934-97.766-114.909-97.53-111.111-96.882-103.339-96.642-103.322-95.698-108.05-95.861-113.143-94.917-117.87-94.155-113.931-92.989-107.722-92.842-107.703-92.177-110.346-92.207-113.761-91.783-119.818-91.359-115.922-91.021-114.354-90.668-113.122-89.603-117.022-88.561-120.835-87.388-125.126-87.023-124.02-86.846-123.485-86.489-122.405-85.855-127.801-85.295-132.567-84.734-137.333-84.478-137.324-83.836-132.085-83.76-128.968-83.409-129.88-83.235-130.332-83.062-130.783-82.943-130.755-82.896-125.225-82.779-125.215-82.219-128.109-81.659-131.004-80.989-134.471L-77.671-130.211C-77.412-130.685-77.169-131.128-76.528-132.299-76.197-130.892-76.023-130.108-75.827-129.33-75.59-128.395-74.589-126.642-74.34-126.696L-73.557-133.61C-73.434-133.61-72.95-132.292-72.756-131.226-72.338-132.317-72.084-132.98-71.719-133.934-71.46-133.145-71.327-132.735-71.193-132.326-71.024-132.304-68.799-142.993-68.799-142.993-68.754-142.99-68.77-142.991-68.725-142.988L-68.233-130.985C-67.952-130.998-66.51-145.645-66.269-148.158-66.113-148.154-66.353-138.554-66.197-138.55-66.109-137.599-63.042-156.362-62.964-155.529L-64.456-136.182C-63.764-138.415-63.109-140.531-62.245-143.326-61.939-142.08-61.437-140.991-61.322-140.999-60.789-146.422-60.152-165.429-59.619-170.852-59.377-163.811-59.25-145.935-57.754-140.715-57.294-141.192-57.619-151.949-57.004-154.089-56.771-151.674-56.528-137.844-56.592-136.186-56.295-134.847-55.664-133.238-54.525-131.936-54.27-133.023-50.767-161.809-50.51-162.899-50.513-155.783-49.272-136.723-48.363-135.45-47.219-138.33-47.033-142.798-45.821-151.123-45.638-151.111-44.55-143.159-43.83-141.253-43.396-141.899-42.506-143.773-41.681-146.633-41.144-144.524-41.994-129.247-41.28-126.444-40.93-130.077-40.656-132.925-40.455-135.015-40.198-135.051-38.941-127.332-36.309-123.462-35.438-127.823-35.083-134.645-34.977-137.145-34.829-136.424-33.346-134.285-32.82-133.354-32.411-137.374-32.728-141.515-32.372-145.023-32.096-141.698-31.271-125.58-30.704-122.686-30.564-123.777-30.338-124.33-30.169-126.236-29.95-121.877-29.48-117.195-29.238-112.384-28.572-113.097-28.308-113.378-28.108-113.592-27.248-109.036-26.396-104.527-25.546-100.027-25.218-100.199-24.856-100.388-24.308-100.675-23.967-99.235-23.673-97.989-23.378-96.743-23.292-96.746-23.207-96.749-23.12-96.752-22.985-100.282-22.306-107.331-22.101-107.324-22.124-102.259-21.779-92.133-21.583-92.135-21.478-93.655-20.925-95.714-20.786-97.706-20.447-96.436-20.377-95.742-19.986-95.091-19.834-96.441-19.834-96.441-19.362-99.867-19.039-95.313-17.892-84.974-17.772-84.987-17.691-86.063-17.352-88.836-17.27-89.912-17.016-85.973-16.501-82.432-16.389-82.442L-15.614-90.01C-15.464-89.999-14.402-82.192-14.07-82.193-12.996-95.594-13.638-108.616-12.526-122.487-12.212-106.957-9.305-77.258-9.014-77.258-8.543-80.084-8.543-82.033-8.234-88.64-8.117-84.317-7.594-75.667-7.449-75.665-6.638-78.093-6.579-83.338-6.304-83.338-6.087-78.413-5.871-73.488-5.651-68.479-4.393-69.24-4.509-70.636-3.375-73.814-3.295-70.88-2.422-64.569-2.248-64.574-2.116-66.139-1.728-69.751-1.597-71.315-1.3-66.74-.945-65.254-.807-62.58 .733-65.343 1.03-68.308 1.411-77.924 1.75-70.511 2.925-63.373 4.227-56.266 4.74-58.543 4.862-67.646 4.877-69.913 5.372-62.632 6.033-54.474 6.184-54.478 6.4-59.171 6.616-63.863 6.833-68.556 7.363-63.987 7.469-62.737 7.956-60.726 8.274-62.356 8.443-63.33 8.629-64.385 9.269-63.31 10.139-60.745 10.201-60.746 10.201-60.746 11.38-73.46 11.731-73.453 11.97-71.687 12.208-69.922 12.447-68.156 12.544-68.169 13.167-95.097 13.381-108.548 13.604-108.545 15.123-72.614 15.307-72.615L16.124-86.698C16.334-86.687 16.449-55.98 22.413-37.161 22.915-38.119 23.243-38.746 23.677-39.572 24.663-36.017 25.554-32.806 26.444-29.594 26.847-30.362 26.88-31.062 26.967-31.756 27.042-32.357 27.175-32.952 27.302-33.654 27.855-29.608 29.645-21.848 30.02-21.771 30.008-22.421 31.023-26.524 31.011-27.176 31.082-27.109 31.957-16.855 32.377-14.626 33.277-15.88 33.648-27.747 33.694-43.629 35.045-20.662 36.371-19.134 36.726-18.103 37.246-19.804 37.46-21.202 37.81-23.26 38.943-15.276 38.456-7.201 40.494 .595 41.092-.707 41.424-1.429 41.755-2.151 42.042-2.124 43.054 .91 43.054 .91 43.133 .91 43.53-2.633 43.65-4.405 43.899-3.453 44.265-.075 44.323 .441 45.297-1.42 45.975-5.402 46.313-7.986 49.025 .91 48.613-18.814 48.563-25.821 48.811-25.842 50.619-15.285 50.619-15.285 50.907-15.277 50.804-27.049 50.804-27.049 52.075-20.906 52.568-35.34 52.77-36.935 52.972-36.927 53.447-33.111 53.483-31.212 53.495-31.212 54.971-44.585 55.506-49.5 55.633-46.704 58.633-32.076 58.844-31.433L60.039-38.063C60.039-38.063 62.199-26.816 62.058-25.016 62.636-26.008 62.775-26.843 63.343-27.642 63.342-27.296 64.147-26.116 64.546-25.842 65.164-27.303 65.889-50.728 66.308-62.971 66.435-59.891 67.282-34.25 67.541-24.742 68.172-20.991 69.947-14.297 70.089-13.293 70.458-13.897 75.458-33.445 78.715-35.955 78.703-35.359 78.918-28.313 80.986-21.107 81.367-22.823 86.407-33.833 86.564-34.472 86.767-34.445 86.36-33.036 86.623-32.223 86.776-31.749 87.114-30.715 89.485-30.354 92.552-29.887 123.505-29.607 126.537-29.463 106.968-28.709 92.601-29.27 87.402-27.988 86.389-24.405 86.221-23.76 85.688-20.313" fill="#231f20"/>
</g>
</g>
</svg>
